<svg width="24" height="24" viewBox="0 0 16 16" fill="none" xmlns="http://www.w3.org/2000/svg">
<rect width="16" height="16" fill="none"/>
<path fill-rule="evenodd" clip-rule="evenodd" d="M7.05361 11.1627L4.35634 8.57679C3.88122 8.12135 3.88121 7.37837 4.35634 6.92294C4.82551 6.47322 5.58197 6.47322 6.05114 6.92294L7.90126 8.69637L12.4488 4.33729C12.918 3.88757 13.6745 3.88757 14.1436 4.33729C14.6188 4.79273 14.6188 5.5357 14.1436 5.99114L8.74843 11.1627C8.27926 11.6124 7.52278 11.6124 7.05361 11.1627Z" fill="currentColor"/>
<path d="M4.406 3.342C5.40548 2.48014 6.68024 2.00414 8 2C8.80563 2 9.57028 2.17939 10.2527 2.5C10.6752 2.69845 11.0661 2.951 11.4158 3.24861C11.6267 3.42803 11.6192 3.74766 11.4193 3.93917C11.2206 4.1295 10.9071 4.12074 10.6937 3.9472C10.3925 3.7024 10.0549 3.49772 9.68948 3.342C9.17378 3.12227 8.60256 3 8 3C6.91988 3.00431 5.87684 3.39443 5.059 4.1C4.36637 4.69656 3.97595 5.40531 3.91457 5.99413C3.90886 6.04885 3.906 6.10254 3.906 6.155V6.603L3.461 6.652C3.40329 6.65832 3.34614 6.66634 3.28962 6.676C1.9779 6.90014 1 8.00843 1 9.318C1 10.785 2.23 12 3.781 12H12.688C13.979 12 15 10.988 15 9.773C15 9.38108 14.894 9.01035 14.7071 8.68787C14.5934 8.49166 14.4497 8.3133 14.2817 8.1589C14.04 7.93678 13.9752 7.53785 14.2121 7.31069C14.3678 7.16145 14.6074 7.1344 14.7765 7.26829C15.0393 7.47641 15.2691 7.72314 15.4564 8C15.7995 8.50728 16 9.11568 16 9.773C16 11.569 14.502 13 12.687 13H3.781C1.708 13 0 11.366 0 9.318C0 7.555 1.266 6.095 2.942 5.725C3.085 4.862 3.64 4.002 4.406 3.342Z" fill="currentColor"/>
</svg>
