<svg width="16" height="16" viewBox="0 0 16 16" fill="none" xmlns="http://www.w3.org/2000/svg">
<g clip-path="url(#clip0_426_409)">
<path d="M3.74367 5.5L4.24366 5.5L4.24367 5L4.24368 2.31932C4.24368 1.40406 5.19125 0.499972 6.58124 0.499972L9.41879 0.499973C10.8088 0.499973 11.7563 1.40406 11.7563 2.31932L11.7563 5L11.7563 5.5L12.2563 5.5L13.1571 5.5C14.1636 5.5 14.9179 6.02357 15.2726 6.69273C15.624 7.35557 15.5948 8.17392 14.9984 8.85067L9.84128 14.7027C8.90439 15.7658 7.09561 15.7658 6.15872 14.7027L1.00161 8.85067C0.405222 8.17393 0.376017 7.35557 0.727378 6.69273C1.08209 6.02357 1.83641 5.5 2.84288 5.5L3.74367 5.5Z" stroke="currentColor"/>
</g>
</svg>
