<svg width="32" height="32" viewBox="0 0 16 16" fill="none" xmlns="http://www.w3.org/2000/svg">
<g clip-path="url(#clip0_426_391)">
<path d="M12.2563 10.5H11.7563L11.7563 11L11.7563 13.6807C11.7563 14.5959 10.8088 15.5 9.41877 15.5H6.58121C5.19122 15.5 4.24365 14.5959 4.24365 13.6807L4.24367 11L4.24367 10.5H3.74367H2.84288C1.83641 10.5 1.08208 9.97643 0.727375 9.30727C0.376016 8.64443 0.405221 7.82608 1.00161 7.14933L6.15872 1.29734C7.09561 0.234219 8.90439 0.234219 9.84128 1.29734L14.9984 7.14933C15.5948 7.82607 15.624 8.64443 15.2726 9.30727C14.9179 9.97643 14.1636 10.5 13.1571 10.5H12.2563Z" stroke="currentColor"/>
</g>
</svg>
