<svg width="16" height="16" viewBox="0 0 16 16" fill="none" xmlns="http://www.w3.org/2000/svg">
  <path d="M3.38271 12.6175C2.87269 12.1075 2.87269 11.2806 3.38271 10.7705L10.7705 3.3828C11.2806 2.87278 12.1075 2.87278 12.6175 3.3828C13.1275 3.89282 13.1275 4.71972 12.6175 5.22974L5.22967 12.6175C4.71965 13.1275 3.89274 13.1275 3.38271 12.6175Z" fill="currentColor"/>
  <path d="M3.38252 3.38251C3.89254 2.8725 4.71945 2.8725 5.22947 3.38251L12.6173 10.7703C13.1273 11.2803 13.1273 12.1072 12.6173 12.6172C12.1073 13.1272 11.2804 13.1272 10.7703 12.6172L3.38252 5.22945C2.87249 4.71943 2.87249 3.89253 3.38252 3.38251Z" fill="currentColor"/>
</svg>