<svg width="19" height="18" viewBox="0 0 10 11" fill="none" xmlns="http://www.w3.org/2000/svg">
<path d="M7.15514 0C6.42422 0 5.6933 0.289021 5.13436 0.812011L1.15013 4.55552C-0.383375 6.02815 -0.383375 8.40913 1.15013 9.89553C2.68363 11.3682 5.16302 11.3682 6.71086 9.89553L8.50233 8.17516L7.51344 7.22552L5.85095 8.78073L5.72196 8.95965C4.73307 9.90929 3.12791 9.90929 2.13902 8.95965C1.16446 8.02377 1.19312 6.50985 2.13902 5.56021L6.12325 1.77541C6.68219 1.23866 7.61376 1.23866 8.18703 1.77541C8.74597 2.31217 8.71731 3.16547 8.18703 3.71598L4.60408 7.11542C4.46077 7.25305 4.21713 7.25305 4.05948 7.11542C3.91616 6.97779 3.91616 6.74382 4.05948 6.59243L4.14547 6.55114L5.44966 5.25743L4.46077 4.30779L3.07058 5.64279C2.38266 6.30341 2.38266 7.39068 3.07058 8.0513C3.75851 8.71192 4.89072 8.72568 5.57865 8.0513L9.16159 4.69315C10.2795 3.61964 10.2795 1.88552 9.16159 0.825774C8.60265 0.289021 7.88606 0.0137629 7.14081 0.0137629L7.15514 0Z" fill="#292524"/>
</svg>
